<?xml version="1.0" encoding="utf-8"?>
<svg xmlns="http://www.w3.org/2000/svg" xmlns:xlink="http://www.w3.org/1999/xlink" style="margin: auto; background: none; display: block; shape-rendering: auto;" width="440px" height="440px" viewBox="0 0 100 100" preserveAspectRatio="xMidYMid">
<g transform="rotate(0 50 50)">
  <rect x="49.5" y="30.5" rx="0" ry="0" width="1" height="3" fill="#00adb5">
    <animate attributeName="opacity" values="1;0" keyTimes="0;1" dur="0.9900990099009901s" begin="-0.971058644325971s" repeatCount="indefinite"></animate>
  </rect>
</g><g transform="rotate(6.923076923076923 50 50)">
  <rect x="49.5" y="30.5" rx="0" ry="0" width="1" height="3" fill="#00adb5">
    <animate attributeName="opacity" values="1;0" keyTimes="0;1" dur="0.9900990099009901s" begin="-0.9520182787509519s" repeatCount="indefinite"></animate>
  </rect>
</g><g transform="rotate(13.846153846153847 50 50)">
  <rect x="49.5" y="30.5" rx="0" ry="0" width="1" height="3" fill="#00adb5">
    <animate attributeName="opacity" values="1;0" keyTimes="0;1" dur="0.9900990099009901s" begin="-0.9329779131759329s" repeatCount="indefinite"></animate>
  </rect>
</g><g transform="rotate(20.76923076923077 50 50)">
  <rect x="49.5" y="30.5" rx="0" ry="0" width="1" height="3" fill="#00adb5">
    <animate attributeName="opacity" values="1;0" keyTimes="0;1" dur="0.9900990099009901s" begin="-0.9139375476009138s" repeatCount="indefinite"></animate>
  </rect>
</g><g transform="rotate(27.692307692307693 50 50)">
  <rect x="49.5" y="30.5" rx="0" ry="0" width="1" height="3" fill="#00adb5">
    <animate attributeName="opacity" values="1;0" keyTimes="0;1" dur="0.9900990099009901s" begin="-0.8948971820258949s" repeatCount="indefinite"></animate>
  </rect>
</g><g transform="rotate(34.61538461538461 50 50)">
  <rect x="49.5" y="30.5" rx="0" ry="0" width="1" height="3" fill="#00adb5">
    <animate attributeName="opacity" values="1;0" keyTimes="0;1" dur="0.9900990099009901s" begin="-0.8758568164508758s" repeatCount="indefinite"></animate>
  </rect>
</g><g transform="rotate(41.53846153846154 50 50)">
  <rect x="49.5" y="30.5" rx="0" ry="0" width="1" height="3" fill="#00adb5">
    <animate attributeName="opacity" values="1;0" keyTimes="0;1" dur="0.9900990099009901s" begin="-0.8568164508758568s" repeatCount="indefinite"></animate>
  </rect>
</g><g transform="rotate(48.46153846153846 50 50)">
  <rect x="49.5" y="30.5" rx="0" ry="0" width="1" height="3" fill="#00adb5">
    <animate attributeName="opacity" values="1;0" keyTimes="0;1" dur="0.9900990099009901s" begin="-0.8377760853008377s" repeatCount="indefinite"></animate>
  </rect>
</g><g transform="rotate(55.38461538461539 50 50)">
  <rect x="49.5" y="30.5" rx="0" ry="0" width="1" height="3" fill="#00adb5">
    <animate attributeName="opacity" values="1;0" keyTimes="0;1" dur="0.9900990099009901s" begin="-0.8187357197258187s" repeatCount="indefinite"></animate>
  </rect>
</g><g transform="rotate(62.30769230769231 50 50)">
  <rect x="49.5" y="30.5" rx="0" ry="0" width="1" height="3" fill="#00adb5">
    <animate attributeName="opacity" values="1;0" keyTimes="0;1" dur="0.9900990099009901s" begin="-0.7996953541507996s" repeatCount="indefinite"></animate>
  </rect>
</g><g transform="rotate(69.23076923076923 50 50)">
  <rect x="49.5" y="30.5" rx="0" ry="0" width="1" height="3" fill="#00adb5">
    <animate attributeName="opacity" values="1;0" keyTimes="0;1" dur="0.9900990099009901s" begin="-0.7806549885757806s" repeatCount="indefinite"></animate>
  </rect>
</g><g transform="rotate(76.15384615384616 50 50)">
  <rect x="49.5" y="30.5" rx="0" ry="0" width="1" height="3" fill="#00adb5">
    <animate attributeName="opacity" values="1;0" keyTimes="0;1" dur="0.9900990099009901s" begin="-0.7616146230007615s" repeatCount="indefinite"></animate>
  </rect>
</g><g transform="rotate(83.07692307692308 50 50)">
  <rect x="49.5" y="30.5" rx="0" ry="0" width="1" height="3" fill="#00adb5">
    <animate attributeName="opacity" values="1;0" keyTimes="0;1" dur="0.9900990099009901s" begin="-0.7425742574257426s" repeatCount="indefinite"></animate>
  </rect>
</g><g transform="rotate(90 50 50)">
  <rect x="49.5" y="30.5" rx="0" ry="0" width="1" height="3" fill="#00adb5">
    <animate attributeName="opacity" values="1;0" keyTimes="0;1" dur="0.9900990099009901s" begin="-0.7235338918507235s" repeatCount="indefinite"></animate>
  </rect>
</g><g transform="rotate(96.92307692307692 50 50)">
  <rect x="49.5" y="30.5" rx="0" ry="0" width="1" height="3" fill="#00adb5">
    <animate attributeName="opacity" values="1;0" keyTimes="0;1" dur="0.9900990099009901s" begin="-0.7044935262757045s" repeatCount="indefinite"></animate>
  </rect>
</g><g transform="rotate(103.84615384615384 50 50)">
  <rect x="49.5" y="30.5" rx="0" ry="0" width="1" height="3" fill="#00adb5">
    <animate attributeName="opacity" values="1;0" keyTimes="0;1" dur="0.9900990099009901s" begin="-0.6854531607006854s" repeatCount="indefinite"></animate>
  </rect>
</g><g transform="rotate(110.76923076923077 50 50)">
  <rect x="49.5" y="30.5" rx="0" ry="0" width="1" height="3" fill="#00adb5">
    <animate attributeName="opacity" values="1;0" keyTimes="0;1" dur="0.9900990099009901s" begin="-0.6664127951256664s" repeatCount="indefinite"></animate>
  </rect>
</g><g transform="rotate(117.6923076923077 50 50)">
  <rect x="49.5" y="30.5" rx="0" ry="0" width="1" height="3" fill="#00adb5">
    <animate attributeName="opacity" values="1;0" keyTimes="0;1" dur="0.9900990099009901s" begin="-0.6473724295506473s" repeatCount="indefinite"></animate>
  </rect>
</g><g transform="rotate(124.61538461538461 50 50)">
  <rect x="49.5" y="30.5" rx="0" ry="0" width="1" height="3" fill="#00adb5">
    <animate attributeName="opacity" values="1;0" keyTimes="0;1" dur="0.9900990099009901s" begin="-0.6283320639756282s" repeatCount="indefinite"></animate>
  </rect>
</g><g transform="rotate(131.53846153846155 50 50)">
  <rect x="49.5" y="30.5" rx="0" ry="0" width="1" height="3" fill="#00adb5">
    <animate attributeName="opacity" values="1;0" keyTimes="0;1" dur="0.9900990099009901s" begin="-0.6092916984006093s" repeatCount="indefinite"></animate>
  </rect>
</g><g transform="rotate(138.46153846153845 50 50)">
  <rect x="49.5" y="30.5" rx="0" ry="0" width="1" height="3" fill="#00adb5">
    <animate attributeName="opacity" values="1;0" keyTimes="0;1" dur="0.9900990099009901s" begin="-0.5902513328255902s" repeatCount="indefinite"></animate>
  </rect>
</g><g transform="rotate(145.3846153846154 50 50)">
  <rect x="49.5" y="30.5" rx="0" ry="0" width="1" height="3" fill="#00adb5">
    <animate attributeName="opacity" values="1;0" keyTimes="0;1" dur="0.9900990099009901s" begin="-0.5712109672505712s" repeatCount="indefinite"></animate>
  </rect>
</g><g transform="rotate(152.30769230769232 50 50)">
  <rect x="49.5" y="30.5" rx="0" ry="0" width="1" height="3" fill="#00adb5">
    <animate attributeName="opacity" values="1;0" keyTimes="0;1" dur="0.9900990099009901s" begin="-0.5521706016755521s" repeatCount="indefinite"></animate>
  </rect>
</g><g transform="rotate(159.23076923076923 50 50)">
  <rect x="49.5" y="30.5" rx="0" ry="0" width="1" height="3" fill="#00adb5">
    <animate attributeName="opacity" values="1;0" keyTimes="0;1" dur="0.9900990099009901s" begin="-0.5331302361005331s" repeatCount="indefinite"></animate>
  </rect>
</g><g transform="rotate(166.15384615384616 50 50)">
  <rect x="49.5" y="30.5" rx="0" ry="0" width="1" height="3" fill="#00adb5">
    <animate attributeName="opacity" values="1;0" keyTimes="0;1" dur="0.9900990099009901s" begin="-0.514089870525514s" repeatCount="indefinite"></animate>
  </rect>
</g><g transform="rotate(173.07692307692307 50 50)">
  <rect x="49.5" y="30.5" rx="0" ry="0" width="1" height="3" fill="#00adb5">
    <animate attributeName="opacity" values="1;0" keyTimes="0;1" dur="0.9900990099009901s" begin="-0.49504950495049505s" repeatCount="indefinite"></animate>
  </rect>
</g><g transform="rotate(180 50 50)">
  <rect x="49.5" y="30.5" rx="0" ry="0" width="1" height="3" fill="#00adb5">
    <animate attributeName="opacity" values="1;0" keyTimes="0;1" dur="0.9900990099009901s" begin="-0.47600913937547595s" repeatCount="indefinite"></animate>
  </rect>
</g><g transform="rotate(186.92307692307693 50 50)">
  <rect x="49.5" y="30.5" rx="0" ry="0" width="1" height="3" fill="#00adb5">
    <animate attributeName="opacity" values="1;0" keyTimes="0;1" dur="0.9900990099009901s" begin="-0.4569687738004569s" repeatCount="indefinite"></animate>
  </rect>
</g><g transform="rotate(193.84615384615384 50 50)">
  <rect x="49.5" y="30.5" rx="0" ry="0" width="1" height="3" fill="#00adb5">
    <animate attributeName="opacity" values="1;0" keyTimes="0;1" dur="0.9900990099009901s" begin="-0.4379284082254379s" repeatCount="indefinite"></animate>
  </rect>
</g><g transform="rotate(200.76923076923077 50 50)">
  <rect x="49.5" y="30.5" rx="0" ry="0" width="1" height="3" fill="#00adb5">
    <animate attributeName="opacity" values="1;0" keyTimes="0;1" dur="0.9900990099009901s" begin="-0.41888804265041885s" repeatCount="indefinite"></animate>
  </rect>
</g><g transform="rotate(207.69230769230768 50 50)">
  <rect x="49.5" y="30.5" rx="0" ry="0" width="1" height="3" fill="#00adb5">
    <animate attributeName="opacity" values="1;0" keyTimes="0;1" dur="0.9900990099009901s" begin="-0.3998476770753998s" repeatCount="indefinite"></animate>
  </rect>
</g><g transform="rotate(214.6153846153846 50 50)">
  <rect x="49.5" y="30.5" rx="0" ry="0" width="1" height="3" fill="#00adb5">
    <animate attributeName="opacity" values="1;0" keyTimes="0;1" dur="0.9900990099009901s" begin="-0.3808073115003808s" repeatCount="indefinite"></animate>
  </rect>
</g><g transform="rotate(221.53846153846155 50 50)">
  <rect x="49.5" y="30.5" rx="0" ry="0" width="1" height="3" fill="#00adb5">
    <animate attributeName="opacity" values="1;0" keyTimes="0;1" dur="0.9900990099009901s" begin="-0.36176694592536174s" repeatCount="indefinite"></animate>
  </rect>
</g><g transform="rotate(228.46153846153845 50 50)">
  <rect x="49.5" y="30.5" rx="0" ry="0" width="1" height="3" fill="#00adb5">
    <animate attributeName="opacity" values="1;0" keyTimes="0;1" dur="0.9900990099009901s" begin="-0.3427265803503427s" repeatCount="indefinite"></animate>
  </rect>
</g><g transform="rotate(235.3846153846154 50 50)">
  <rect x="49.5" y="30.5" rx="0" ry="0" width="1" height="3" fill="#00adb5">
    <animate attributeName="opacity" values="1;0" keyTimes="0;1" dur="0.9900990099009901s" begin="-0.32368621477532367s" repeatCount="indefinite"></animate>
  </rect>
</g><g transform="rotate(242.30769230769232 50 50)">
  <rect x="49.5" y="30.5" rx="0" ry="0" width="1" height="3" fill="#00adb5">
    <animate attributeName="opacity" values="1;0" keyTimes="0;1" dur="0.9900990099009901s" begin="-0.30464584920030463s" repeatCount="indefinite"></animate>
  </rect>
</g><g transform="rotate(249.23076923076923 50 50)">
  <rect x="49.5" y="30.5" rx="0" ry="0" width="1" height="3" fill="#00adb5">
    <animate attributeName="opacity" values="1;0" keyTimes="0;1" dur="0.9900990099009901s" begin="-0.2856054836252856s" repeatCount="indefinite"></animate>
  </rect>
</g><g transform="rotate(256.15384615384613 50 50)">
  <rect x="49.5" y="30.5" rx="0" ry="0" width="1" height="3" fill="#00adb5">
    <animate attributeName="opacity" values="1;0" keyTimes="0;1" dur="0.9900990099009901s" begin="-0.26656511805026656s" repeatCount="indefinite"></animate>
  </rect>
</g><g transform="rotate(263.0769230769231 50 50)">
  <rect x="49.5" y="30.5" rx="0" ry="0" width="1" height="3" fill="#00adb5">
    <animate attributeName="opacity" values="1;0" keyTimes="0;1" dur="0.9900990099009901s" begin="-0.24752475247524752s" repeatCount="indefinite"></animate>
  </rect>
</g><g transform="rotate(270 50 50)">
  <rect x="49.5" y="30.5" rx="0" ry="0" width="1" height="3" fill="#00adb5">
    <animate attributeName="opacity" values="1;0" keyTimes="0;1" dur="0.9900990099009901s" begin="-0.22848438690022846s" repeatCount="indefinite"></animate>
  </rect>
</g><g transform="rotate(276.9230769230769 50 50)">
  <rect x="49.5" y="30.5" rx="0" ry="0" width="1" height="3" fill="#00adb5">
    <animate attributeName="opacity" values="1;0" keyTimes="0;1" dur="0.9900990099009901s" begin="-0.20944402132520942s" repeatCount="indefinite"></animate>
  </rect>
</g><g transform="rotate(283.84615384615387 50 50)">
  <rect x="49.5" y="30.5" rx="0" ry="0" width="1" height="3" fill="#00adb5">
    <animate attributeName="opacity" values="1;0" keyTimes="0;1" dur="0.9900990099009901s" begin="-0.1904036557501904s" repeatCount="indefinite"></animate>
  </rect>
</g><g transform="rotate(290.7692307692308 50 50)">
  <rect x="49.5" y="30.5" rx="0" ry="0" width="1" height="3" fill="#00adb5">
    <animate attributeName="opacity" values="1;0" keyTimes="0;1" dur="0.9900990099009901s" begin="-0.17136329017517135s" repeatCount="indefinite"></animate>
  </rect>
</g><g transform="rotate(297.6923076923077 50 50)">
  <rect x="49.5" y="30.5" rx="0" ry="0" width="1" height="3" fill="#00adb5">
    <animate attributeName="opacity" values="1;0" keyTimes="0;1" dur="0.9900990099009901s" begin="-0.15232292460015232s" repeatCount="indefinite"></animate>
  </rect>
</g><g transform="rotate(304.61538461538464 50 50)">
  <rect x="49.5" y="30.5" rx="0" ry="0" width="1" height="3" fill="#00adb5">
    <animate attributeName="opacity" values="1;0" keyTimes="0;1" dur="0.9900990099009901s" begin="-0.13328255902513328s" repeatCount="indefinite"></animate>
  </rect>
</g><g transform="rotate(311.53846153846155 50 50)">
  <rect x="49.5" y="30.5" rx="0" ry="0" width="1" height="3" fill="#00adb5">
    <animate attributeName="opacity" values="1;0" keyTimes="0;1" dur="0.9900990099009901s" begin="-0.11424219345011423s" repeatCount="indefinite"></animate>
  </rect>
</g><g transform="rotate(318.46153846153845 50 50)">
  <rect x="49.5" y="30.5" rx="0" ry="0" width="1" height="3" fill="#00adb5">
    <animate attributeName="opacity" values="1;0" keyTimes="0;1" dur="0.9900990099009901s" begin="-0.0952018278750952s" repeatCount="indefinite"></animate>
  </rect>
</g><g transform="rotate(325.38461538461536 50 50)">
  <rect x="49.5" y="30.5" rx="0" ry="0" width="1" height="3" fill="#00adb5">
    <animate attributeName="opacity" values="1;0" keyTimes="0;1" dur="0.9900990099009901s" begin="-0.07616146230007616s" repeatCount="indefinite"></animate>
  </rect>
</g><g transform="rotate(332.3076923076923 50 50)">
  <rect x="49.5" y="30.5" rx="0" ry="0" width="1" height="3" fill="#00adb5">
    <animate attributeName="opacity" values="1;0" keyTimes="0;1" dur="0.9900990099009901s" begin="-0.057121096725057115s" repeatCount="indefinite"></animate>
  </rect>
</g><g transform="rotate(339.2307692307692 50 50)">
  <rect x="49.5" y="30.5" rx="0" ry="0" width="1" height="3" fill="#00adb5">
    <animate attributeName="opacity" values="1;0" keyTimes="0;1" dur="0.9900990099009901s" begin="-0.03808073115003808s" repeatCount="indefinite"></animate>
  </rect>
</g><g transform="rotate(346.15384615384613 50 50)">
  <rect x="49.5" y="30.5" rx="0" ry="0" width="1" height="3" fill="#00adb5">
    <animate attributeName="opacity" values="1;0" keyTimes="0;1" dur="0.9900990099009901s" begin="-0.01904036557501904s" repeatCount="indefinite"></animate>
  </rect>
</g><g transform="rotate(353.0769230769231 50 50)">
  <rect x="49.5" y="30.5" rx="0" ry="0" width="1" height="3" fill="#00adb5">
    <animate attributeName="opacity" values="1;0" keyTimes="0;1" dur="0.9900990099009901s" begin="0s" repeatCount="indefinite"></animate>
  </rect>
</g>
<!-- [ldio] generated by https://loading.io/ --></svg>